<?xml version="1.0" standalone="no"?>
<!DOCTYPE svg PUBLIC "-//W3C//DTD SVG 20010904//EN"
 "http://www.w3.org/TR/2001/REC-SVG-20010904/DTD/svg10.dtd">
<svg version="1.0" xmlns="http://www.w3.org/2000/svg"
 width="366.000000pt" height="366.000000pt" viewBox="0 0 366.000000 366.000000"
 preserveAspectRatio="xMidYMid meet">
<metadata>
Created by potrace 1.14, written by Peter Selinger 2001-2017
</metadata>
<g transform="translate(0.000000,366.000000) scale(0.100000,-0.100000)"
fill="#000000" stroke="none">
<path d="M1705 3626 c-449 -90 -815 -520 -976 -1150 -127 -496 -94 -1081 87
-1546 216 -553 612 -891 1043 -890 372 1 738 284 961 745 118 244 185 490 215
795 60 608 -91 1218 -402 1623 -65 84 -190 207 -268 262 -78 56 -229 127 -315
149 -91 23 -258 29 -345 12z m353 -66 c415 -117 761 -583 886 -1193 131 -635
22 -1305 -289 -1771 -163 -245 -375 -413 -602 -478 -112 -32 -296 -32 -406 0
-446 128 -794 624 -911 1297 -71 403 -27 905 109 1269 48 129 104 247 155 331
197 322 444 513 728 565 75 14 248 3 330 -20z"/>
<path d="M1751 3393 c-35 -2 -73 -11 -85 -19 -11 -7 -31 -14 -43 -14 -13 0
-23 -4 -23 -10 0 -5 -8 -10 -19 -10 -10 0 -24 -7 -31 -15 -7 -8 -17 -15 -22
-15 -15 0 -108 -92 -108 -107 0 -7 -4 -13 -9 -13 -5 0 -11 -8 -15 -17 -3 -10
-9 -25 -14 -33 -25 -42 -32 -62 -32 -87 0 -16 -7 -37 -15 -47 -22 -29 -22
-441 0 -493 8 -19 15 -44 15 -54 0 -18 8 -37 32 -79 4 -8 13 -25 18 -38 15
-34 121 -134 164 -154 116 -55 128 -58 290 -65 70 -3 113 0 119 6 6 6 30 11
53 11 25 0 49 6 58 15 8 8 24 15 35 15 12 0 21 5 21 10 0 6 9 10 20 10 11 0
23 7 26 15 4 8 10 15 15 15 12 0 33 17 62 49 12 14 30 33 40 43 9 10 17 23 17
28 0 6 5 10 10 10 6 0 10 9 10 19 0 11 4 22 9 26 5 3 18 31 28 63 15 49 18 93
18 302 0 176 -4 258 -13 290 -19 62 -64 151 -79 157 -7 3 -13 10 -13 15 0 29
-157 138 -198 138 -8 0 -23 6 -31 14 -17 15 -196 26 -310 19z m169 -331 c0 -5
17 -16 38 -25 23 -10 47 -33 65 -60 27 -44 27 -46 26 -213 0 -153 -2 -173 -22
-214 -12 -24 -33 -50 -45 -56 -13 -6 -29 -17 -35 -23 -6 -6 -45 -11 -89 -11
l-79 0 -42 43 c-55 55 -67 103 -67 265 0 184 27 249 115 284 42 17 135 24 135
10z"/>
<path d="M1765 2050 c-3 -5 -21 -10 -40 -10 -32 0 -96 -26 -103 -42 -2 -5 -12
-8 -23 -8 -11 0 -22 -7 -25 -15 -4 -8 -12 -15 -19 -15 -7 0 -31 -21 -55 -47
-23 -27 -51 -58 -61 -69 -10 -12 -19 -27 -19 -33 0 -6 -5 -21 -12 -34 -6 -12
-16 -31 -21 -42 -15 -29 -28 -92 -34 -157 l-5 -58 171 0 170 0 19 62 c14 44
31 74 58 100 35 35 43 38 94 38 65 0 119 -30 144 -81 22 -44 23 -320 2 -370
-24 -58 -60 -81 -126 -80 -32 0 -69 6 -81 13 -40 24 -79 67 -79 88 0 20 -4 20
-167 18 l-168 -3 -3 -488 -2 -487 26 -10 c31 -12 883 -13 902 -1 10 6 13 44
13 152 0 79 0 150 0 157 -1 9 -66 12 -291 12 l-290 0 0 125 c0 102 3 125 14
125 8 0 18 -4 21 -10 3 -6 17 -10 31 -10 14 0 36 -7 49 -16 18 -12 43 -15 102
-12 76 4 100 11 193 51 46 20 140 108 140 132 0 7 7 15 15 19 8 3 15 12 15 21
0 8 4 23 9 33 37 72 43 121 41 339 0 120 -1 227 -1 237 0 10 -7 28 -15 40 -7
11 -14 30 -14 43 0 12 -4 25 -10 28 -5 3 -10 15 -10 26 0 11 -7 22 -15 25 -8
4 -15 11 -15 18 0 13 -83 106 -94 106 -4 0 -22 11 -40 25 -18 14 -39 25 -47
25 -8 0 -23 7 -33 15 -11 8 -37 15 -57 15 -21 0 -41 5 -44 10 -3 6 -50 10
-105 10 -55 0 -102 -4 -105 -10z"/>
</g>
</svg>
